<mxfile host="app.diagrams.net" modified="2023-02-06T10:14:24.540Z" agent="5.0 (Windows NT 10.0; Win64; x64) AppleWebKit/537.36 (KHTML, like Gecko) Chrome/109.0.0.0 Safari/537.36" etag="H81RmN9rkwhvb01o9R_z" version="20.8.10" type="github">
  <diagram name="第 1 页" id="uc6dKP3SFh4-HOUI6RO6">
    <mxGraphModel dx="162" dy="488" grid="1" gridSize="10" guides="1" tooltips="1" connect="1" arrows="1" fold="1" page="1" pageScale="1" pageWidth="827" pageHeight="1169" math="1" shadow="0">
      <root>
        <mxCell id="0" />
        <mxCell id="1" parent="0" />
        <mxCell id="OUwBStAaZDtngH6V_24B-23" value="" style="group" vertex="1" connectable="0" parent="1">
          <mxGeometry x="1160" y="480" width="430" height="335" as="geometry" />
        </mxCell>
        <mxCell id="OUwBStAaZDtngH6V_24B-1" value="" style="group" vertex="1" connectable="0" parent="OUwBStAaZDtngH6V_24B-23">
          <mxGeometry x="40" width="390" height="290" as="geometry" />
        </mxCell>
        <mxCell id="OUwBStAaZDtngH6V_24B-2" value="" style="ellipse;whiteSpace=wrap;html=1;aspect=fixed;dashed=1;strokeColor=#00CC00;strokeWidth=2;fontSize=11;fillColor=none;" vertex="1" parent="OUwBStAaZDtngH6V_24B-1">
          <mxGeometry x="100" y="70" width="90" height="90" as="geometry" />
        </mxCell>
        <mxCell id="OUwBStAaZDtngH6V_24B-3" value="" style="shape=waypoint;sketch=0;size=6;pointerEvents=1;points=[];fillColor=none;resizable=0;rotatable=0;perimeter=centerPerimeter;snapToPoint=1;dashed=1;strokeColor=#FF3333;strokeWidth=2;fontSize=11;" vertex="1" parent="OUwBStAaZDtngH6V_24B-1">
          <mxGeometry x="135" y="105" width="20" height="20" as="geometry" />
        </mxCell>
        <mxCell id="OUwBStAaZDtngH6V_24B-4" value="" style="shape=waypoint;sketch=0;size=6;pointerEvents=1;points=[];fillColor=none;resizable=0;rotatable=0;perimeter=centerPerimeter;snapToPoint=1;dashed=1;strokeColor=#334EFF;strokeWidth=2;fontSize=11;fontColor=#802BFF;" vertex="1" parent="OUwBStAaZDtngH6V_24B-1">
          <mxGeometry x="250" y="230" width="20" height="20" as="geometry" />
        </mxCell>
        <mxCell id="OUwBStAaZDtngH6V_24B-5" value="&lt;font color=&quot;#00cc00&quot;&gt;shake hands&lt;/font&gt;" style="text;html=1;align=center;verticalAlign=middle;resizable=0;points=[];autosize=1;strokeColor=none;fillColor=none;fontSize=11;fontColor=#802BFF;" vertex="1" parent="OUwBStAaZDtngH6V_24B-1">
          <mxGeometry x="26" y="140" width="90" height="30" as="geometry" />
        </mxCell>
        <mxCell id="OUwBStAaZDtngH6V_24B-7" value="" style="group" vertex="1" connectable="0" parent="OUwBStAaZDtngH6V_24B-1">
          <mxGeometry width="390" height="290" as="geometry" />
        </mxCell>
        <mxCell id="OUwBStAaZDtngH6V_24B-20" value="" style="endArrow=classic;html=1;rounded=0;" edge="1" parent="OUwBStAaZDtngH6V_24B-7">
          <mxGeometry width="50" height="50" relative="1" as="geometry">
            <mxPoint x="150" y="114.9" as="sourcePoint" />
            <mxPoint x="170" y="114.9" as="targetPoint" />
          </mxGeometry>
        </mxCell>
        <mxCell id="OUwBStAaZDtngH6V_24B-8" value="" style="endArrow=classic;html=1;rounded=0;fontSize=11;" edge="1" parent="OUwBStAaZDtngH6V_24B-7">
          <mxGeometry width="50" height="50" relative="1" as="geometry">
            <mxPoint y="290" as="sourcePoint" />
            <mxPoint x="390" y="290" as="targetPoint" />
          </mxGeometry>
        </mxCell>
        <mxCell id="OUwBStAaZDtngH6V_24B-9" value="" style="endArrow=classic;html=1;rounded=0;fontSize=11;" edge="1" parent="OUwBStAaZDtngH6V_24B-7">
          <mxGeometry width="50" height="50" relative="1" as="geometry">
            <mxPoint x="1" y="290" as="sourcePoint" />
            <mxPoint x="1" as="targetPoint" />
          </mxGeometry>
        </mxCell>
        <mxCell id="OUwBStAaZDtngH6V_24B-10" value="" style="shape=waypoint;sketch=0;size=6;pointerEvents=1;points=[];fillColor=none;resizable=0;rotatable=0;perimeter=centerPerimeter;snapToPoint=1;dashed=1;strokeColor=#FF6666;strokeWidth=2;fontSize=11;" vertex="1" parent="OUwBStAaZDtngH6V_24B-7">
          <mxGeometry x="170" y="105" width="20" height="20" as="geometry" />
        </mxCell>
        <mxCell id="OUwBStAaZDtngH6V_24B-14" value="$$X_B$$" style="text;html=1;align=center;verticalAlign=middle;resizable=0;points=[];autosize=1;strokeColor=none;fillColor=none;fontSize=11;fontColor=#333333;" vertex="1" parent="OUwBStAaZDtngH6V_24B-7">
          <mxGeometry x="240" y="240" width="70" height="30" as="geometry" />
        </mxCell>
        <mxCell id="OUwBStAaZDtngH6V_24B-15" value="$$X_A$$" style="text;html=1;align=center;verticalAlign=middle;resizable=0;points=[];autosize=1;strokeColor=none;fillColor=none;fontSize=11;fontColor=#333333;" vertex="1" parent="OUwBStAaZDtngH6V_24B-7">
          <mxGeometry x="90" y="90" width="70" height="30" as="geometry" />
        </mxCell>
        <mxCell id="OUwBStAaZDtngH6V_24B-6" value="" style="shape=waypoint;sketch=0;size=6;pointerEvents=1;points=[];fillColor=none;resizable=0;rotatable=0;perimeter=centerPerimeter;snapToPoint=1;dashed=1;strokeColor=#66B2FF;strokeWidth=2;fontSize=11;" vertex="1" parent="OUwBStAaZDtngH6V_24B-7">
          <mxGeometry x="210" y="105" width="20" height="20" as="geometry" />
        </mxCell>
        <mxCell id="OUwBStAaZDtngH6V_24B-21" value="" style="endArrow=classic;html=1;rounded=0;dashed=1;strokeColor=#007FFF;" edge="1" parent="OUwBStAaZDtngH6V_24B-7">
          <mxGeometry width="50" height="50" relative="1" as="geometry">
            <mxPoint x="160" y="114.75999999999999" as="sourcePoint" />
            <mxPoint x="210" y="114.75999999999999" as="targetPoint" />
          </mxGeometry>
        </mxCell>
        <mxCell id="OUwBStAaZDtngH6V_24B-22" value="&lt;font color=&quot;#3399ff&quot;&gt;$$\lambda = 0.6$$&lt;/font&gt;" style="text;html=1;align=center;verticalAlign=middle;resizable=0;points=[];autosize=1;strokeColor=none;fillColor=none;fontSize=11;fontColor=#00CC00;" vertex="1" parent="OUwBStAaZDtngH6V_24B-7">
          <mxGeometry x="160" y="120" width="120" height="30" as="geometry" />
        </mxCell>
        <mxCell id="OUwBStAaZDtngH6V_24B-24" value="" style="shape=waypoint;sketch=0;size=6;pointerEvents=1;points=[];fillColor=#FF3333;resizable=0;rotatable=0;perimeter=centerPerimeter;snapToPoint=1;dashed=1;strokeColor=#ff3347;strokeWidth=2;fontSize=11;fontColor=#ff2990;" vertex="1" parent="OUwBStAaZDtngH6V_24B-7">
          <mxGeometry x="160" y="230" width="20" height="20" as="geometry" />
        </mxCell>
        <mxCell id="OUwBStAaZDtngH6V_24B-25" value="$$X_C$$" style="text;html=1;align=center;verticalAlign=middle;resizable=0;points=[];autosize=1;strokeColor=none;fillColor=none;fontSize=11;fontColor=#333333;" vertex="1" parent="OUwBStAaZDtngH6V_24B-7">
          <mxGeometry x="145" y="240" width="70" height="30" as="geometry" />
        </mxCell>
        <mxCell id="OUwBStAaZDtngH6V_24B-12" value="&lt;font color=&quot;#333333&quot;&gt;$$\lambda = 0.1$$&lt;/font&gt;" style="text;html=1;align=center;verticalAlign=middle;resizable=0;points=[];autosize=1;strokeColor=none;fillColor=none;fontSize=11;fontColor=#00CC00;" vertex="1" parent="OUwBStAaZDtngH6V_24B-1">
          <mxGeometry x="116" y="80" width="120" height="30" as="geometry" />
        </mxCell>
        <mxCell id="OUwBStAaZDtngH6V_24B-17" value="body&amp;nbsp; parts : B" style="text;html=1;align=center;verticalAlign=middle;resizable=0;points=[];autosize=1;strokeColor=none;fillColor=none;" vertex="1" parent="OUwBStAaZDtngH6V_24B-23">
          <mxGeometry x="185" y="305" width="100" height="30" as="geometry" />
        </mxCell>
        <mxCell id="OUwBStAaZDtngH6V_24B-18" value="body&amp;nbsp; parts : A" style="text;html=1;align=center;verticalAlign=middle;resizable=0;points=[];autosize=1;strokeColor=none;fillColor=none;rotation=-90;" vertex="1" parent="OUwBStAaZDtngH6V_24B-23">
          <mxGeometry x="-35" y="130" width="100" height="30" as="geometry" />
        </mxCell>
      </root>
    </mxGraphModel>
  </diagram>
</mxfile>
